<svg width="48" height="36" viewBox="0 0 48 36" fill="none" xmlns="http://www.w3.org/2000/svg">
<path fill-rule="evenodd" clip-rule="evenodd" d="M0 0H48V36H0V0Z" fill="#229E45"/>
<path fill-rule="evenodd" clip-rule="evenodd" d="M24.105 32.7L46.7175 18.0225L23.97 3.30001L1.2825 18.0525L24.105 32.7Z" fill="#F8E509"/>
<path fill-rule="evenodd" clip-rule="evenodd" d="M33.9599 18C33.9599 23.2725 29.6774 27.5475 24.3899 27.5475C22.5004 27.5445 20.6542 26.9814 19.0847 25.9294C17.5152 24.8773 16.2929 23.3836 15.5722 21.6369C14.8515 19.8903 14.6649 17.9692 15.0359 16.1165C15.4069 14.2638 16.3188 12.5627 17.6565 11.2282C18.9941 9.89368 20.6974 8.98573 22.5509 8.61911C24.4045 8.25249 26.3252 8.44366 28.0701 9.16844C29.815 9.89322 31.3059 11.1191 32.3543 12.6911C33.4026 14.263 33.9614 16.1105 33.9599 18V18Z" fill="#2B49A3"/>
<path fill-rule="evenodd" clip-rule="evenodd" d="M21.2475 23.7225L20.9475 23.55L20.6475 23.7L20.715 23.3625L20.475 23.1075L20.8125 23.07L20.9775 22.77L21.12 23.085L21.45 23.145L21.2025 23.37M27.6525 25.3425L27.36 25.17L27.06 25.32L27.12 24.9825L26.8875 24.735L27.225 24.6975L27.3825 24.39L27.5325 24.705L27.8625 24.765L27.6075 24.9975M24.8925 22.7475L24.6375 22.5975L24.375 22.7325L24.435 22.44L24.225 22.2225L24.525 22.1925L24.66 21.9225L24.78 22.2L25.0725 22.2525L24.8475 22.455M31.3725 21.8175L31.1175 21.6675L30.855 21.8025L30.915 21.51L30.7125 21.3L31.005 21.27L31.14 21.0075L31.26 21.2775L31.545 21.33L31.3275 21.525M24.78 19.875L24.48 19.71L24.18 19.86L24.24 19.515L24.0075 19.2675L24.345 19.23L24.5025 18.9225L24.6525 19.2375L24.9825 19.2975L24.7275 19.5375M16.8825 16.9125L16.5825 16.7475L16.2825 16.8975L16.3575 16.5525L16.11 16.305L16.455 16.2675L16.605 15.96L16.755 16.275L17.085 16.335L16.8375 16.5675M17.835 20.8575L17.535 20.685L17.235 20.835L17.3025 20.4975L17.0625 20.25L17.4 20.205L17.5575 19.905L17.7075 20.22L18.0375 20.28L17.79 20.5125M27.69 15.465L27.42 15.315L27.15 15.45L27.21 15.15L27 14.925L27.3 14.8875L27.4425 14.6175L27.57 14.9025L27.87 14.955L27.645 15.1575M27.1425 18.03L26.94 17.91L26.7225 18.015L26.7675 17.775L26.6025 17.6025L26.8425 17.5725L26.955 17.3625L27.0525 17.5875L27.2775 17.625L27.1125 17.79M16.4475 21.57L16.245 21.4575L16.0425 21.555L16.0875 21.33L15.93 21.165L16.155 21.135L16.26 20.9325L16.3575 21.1425L16.5825 21.1875L16.41 21.3375M31.425 22.485L31.26 22.4025L31.095 22.4775L31.1325 22.305L31.005 22.185L31.185 22.1625L31.275 22.0125L31.35 22.1625L31.5375 22.2L31.395 22.3125" fill="#FFFFEF"/>
<path fill-rule="evenodd" clip-rule="evenodd" d="M16.4475 21.57L16.245 21.4575L16.0425 21.555L16.0875 21.33L15.93 21.165L16.155 21.135L16.26 20.9325L16.3575 21.1425L16.5825 21.1875L16.41 21.3375" fill="#FFFFEF"/>
<path fill-rule="evenodd" clip-rule="evenodd" d="M16.4475 21.57L16.245 21.4575L16.0425 21.555L16.0875 21.33L15.93 21.165L16.155 21.135L16.26 20.9325L16.3575 21.1425L16.5825 21.1875L16.41 21.3375M19.5825 21.5625L19.3875 21.4575L19.185 21.555L19.23 21.33L19.0725 21.165L19.2975 21.135L19.4025 20.9325L19.5 21.1425L19.725 21.18L19.5525 21.3375M19.1925 22.6125L18.9975 22.5L18.795 22.605L18.84 22.38L18.6825 22.2075L18.9075 22.1775L19.0125 21.975L19.11 22.185L19.335 22.23L19.1625 22.38M25.7175 20.715L25.5225 20.595L25.3125 20.7L25.3575 20.475L25.2075 20.3025L25.4325 20.28L25.5375 20.0775L25.6275 20.2875L25.8525 20.325L25.6875 20.4825M23.805 20.7075L23.6025 20.595L23.4 20.7L23.445 20.475L23.295 20.3025L23.52 20.28L23.625 20.07L23.715 20.2875L23.94 20.325L23.775 20.4825M18.615 20.0475L18.4875 19.9725L18.36 20.0325L18.39 19.89L18.2925 19.785L18.435 19.77L18.495 19.6425L18.555 19.7775L18.6975 19.8L18.5925 19.8975M31.1775 23.3025L30.9825 23.19L30.78 23.295L30.825 23.07L30.6675 22.8975L30.8925 22.8675L30.9975 22.665L31.095 22.875L31.32 22.92L31.1475 23.07M29.5875 23.52L29.4225 23.415L29.25 23.505L29.2875 23.31L29.16 23.175L29.3475 23.1525L29.4375 22.98L29.5125 23.16L29.7 23.19L29.5575 23.325M30.3375 23.4975L30.1875 23.4075L30.03 23.4825L30.06 23.31L29.94 23.1825L30.1125 23.16L30.195 23.01L30.27 23.16L30.4425 23.1975L30.315 23.3175M32.4975 21.6075L32.3475 21.5325L32.1975 21.6075L32.235 21.435L32.115 21.3075L32.2875 21.285L32.3625 21.135L32.4375 21.2925L32.595 21.3225L32.475 21.4425M29.565 24.5775L29.3775 24.4725L29.175 24.5625L29.22 24.3525L29.07 24.2025L29.295 24.18L29.3925 23.9925L29.4825 24.1875L29.7075 24.225L29.535 24.3675M29.58 25.4325L29.4 25.3275L29.22 25.425L29.265 25.215L29.1225 25.065L29.325 25.035L29.415 24.8475L29.4975 25.0425L29.7 25.08L29.55 25.23M28.125 23.4975L27.9825 23.4075L27.8325 23.4825L27.8625 23.3175L27.75 23.19L27.915 23.175L27.99 23.025L28.065 23.175L28.23 23.205L28.11 23.325M26.775 23.4975L26.625 23.4075L26.475 23.4825L26.5125 23.3175L26.3925 23.19L26.565 23.175L26.64 23.025L26.715 23.175L26.8725 23.205L26.7525 23.325M24.4725 21.48L24.3225 21.3975L24.1725 21.4725L24.21 21.3L24.09 21.18L24.255 21.1575L24.33 21.0075L24.405 21.1575L24.57 21.195L24.45 21.3075M24.7275 25.5825L24.6075 25.515L24.4725 25.5825L24.5025 25.4325L24.405 25.3275L24.5475 25.3125L24.615 25.185L24.675 25.32L24.8175 25.3425L24.7125 25.44M21.2475 18.945L20.9475 18.7725L20.6475 18.9225L20.715 18.585L20.475 18.3375L20.8125 18.2925L20.9775 17.9925L21.12 18.3075L21.45 18.3675L21.2025 18.6" fill="#FFFFEF"/>
<path fill-rule="evenodd" clip-rule="evenodd" d="M33.3299 21.435C33.5157 20.9529 33.6612 20.4562 33.7649 19.95C28.6799 15.4875 23.0174 13.2 15.8624 13.6725C15.6028 14.1746 15.3895 14.6993 15.2249 15.24C23.6999 14.43 29.9249 18.18 33.3299 21.435Z" fill="white"/>
<path d="M31.05 18.93L31.2225 19.0275C31.1967 19.0784 31.1888 19.1365 31.2 19.1925C31.2175 19.2468 31.2551 19.2923 31.305 19.32C31.3575 19.3575 31.41 19.38 31.455 19.3725C31.5 19.3725 31.53 19.35 31.5525 19.32C31.5655 19.3001 31.5709 19.2761 31.5675 19.2525C31.5613 19.2248 31.5484 19.199 31.53 19.1775C31.515 19.155 31.4775 19.1025 31.4175 19.0425C31.3558 18.9788 31.3096 18.9019 31.2825 18.8175C31.2638 18.7536 31.2686 18.6852 31.2961 18.6246C31.3237 18.564 31.3721 18.5154 31.4325 18.4875C31.487 18.4647 31.5473 18.4595 31.605 18.4725C31.6755 18.4887 31.7419 18.5194 31.8 18.5625C31.905 18.6375 31.9725 18.7125 31.995 18.8025C32.0053 18.8446 32.0067 18.8884 31.9989 18.9311C31.9912 18.9737 31.9745 19.0142 31.95 19.05L31.77 18.9375C31.7925 18.8925 31.8 18.8475 31.785 18.81C31.7775 18.7725 31.7475 18.735 31.695 18.705C31.6565 18.674 31.6093 18.6557 31.56 18.6525C31.5464 18.652 31.5329 18.6553 31.521 18.6619C31.5091 18.6685 31.4993 18.6782 31.4925 18.69C31.4775 18.7125 31.4775 18.735 31.485 18.765C31.4925 18.795 31.53 18.855 31.605 18.93C31.68 19.005 31.725 19.0725 31.755 19.1175C31.7818 19.1667 31.7939 19.2225 31.7899 19.2783C31.7859 19.3341 31.766 19.3876 31.7325 19.4325C31.6974 19.4835 31.6477 19.5227 31.59 19.545C31.5337 19.5709 31.4709 19.5788 31.41 19.5675C31.3425 19.5525 31.275 19.5225 31.2 19.47C31.0875 19.395 31.02 19.3125 30.9975 19.2225C30.973 19.1204 30.9892 19.0129 31.0425 18.9225L31.05 18.93ZM30.18 18.36L30.3675 18.4575C30.3442 18.5093 30.339 18.5674 30.3525 18.6225C30.3716 18.674 30.409 18.7167 30.4575 18.7425C30.5175 18.78 30.5625 18.795 30.6075 18.7875C30.6525 18.7875 30.6825 18.765 30.705 18.7275C30.7163 18.7097 30.7216 18.6886 30.72 18.6675C30.72 18.645 30.705 18.615 30.6825 18.5925C30.644 18.5461 30.604 18.5011 30.5625 18.4575C30.48 18.375 30.4275 18.3075 30.4125 18.2475C30.4002 18.2089 30.3965 18.1681 30.4017 18.1279C30.4069 18.0878 30.4208 18.0492 30.4425 18.015C30.471 17.9687 30.5128 17.9321 30.5625 17.91C30.614 17.8862 30.6715 17.8784 30.7275 17.8875C30.7968 17.8992 30.8631 17.9247 30.9225 17.9625C31.035 18.0375 31.1025 18.1125 31.125 18.195C31.1386 18.2372 31.143 18.2818 31.1379 18.3258C31.1327 18.3698 31.118 18.4122 31.095 18.45L30.9075 18.345C30.93 18.2925 30.9375 18.255 30.9225 18.2175C30.9075 18.18 30.8775 18.1425 30.825 18.1125C30.7835 18.0827 30.7335 18.0669 30.6825 18.0675C30.6702 18.0683 30.6582 18.0722 30.6478 18.0787C30.6373 18.0853 30.6286 18.0943 30.6225 18.105C30.6075 18.1275 30.6075 18.15 30.615 18.18C30.6225 18.21 30.6675 18.27 30.7425 18.345C30.8175 18.42 30.87 18.48 30.8925 18.525C30.9225 18.572 30.9385 18.6267 30.9385 18.6825C30.9385 18.7383 30.9225 18.793 30.8925 18.84C30.8601 18.8923 30.8132 18.934 30.7575 18.96C30.7012 18.9859 30.6384 18.9938 30.5775 18.9825C30.5003 18.9694 30.4264 18.9414 30.36 18.9C30.263 18.8483 30.1883 18.7629 30.15 18.66C30.121 18.5599 30.1317 18.4524 30.18 18.36V18.36ZM29.115 18.075L29.6625 17.175L30.3225 17.5875L30.2325 17.7375L29.7525 17.4375L29.6325 17.64L30.0825 17.9175L29.985 18.0675L29.535 17.79L29.385 18.0375L29.8875 18.3375L29.7975 18.4875L29.1225 18.075H29.115ZM27.5625 16.8L27.645 16.65L28.05 16.8525L27.8625 17.2275C27.8025 17.2425 27.7275 17.25 27.6375 17.2425C27.5511 17.233 27.4671 17.2075 27.39 17.1675C27.2992 17.1233 27.2216 17.056 27.165 16.9725C27.1134 16.8949 27.0872 16.8032 27.09 16.71C27.0938 16.613 27.1194 16.5182 27.165 16.4325C27.21 16.3423 27.2771 16.2649 27.36 16.2075C27.4392 16.1527 27.5336 16.1239 27.63 16.125C27.705 16.125 27.78 16.1475 27.87 16.2C27.99 16.2525 28.065 16.3275 28.1025 16.41C28.1415 16.4919 28.1495 16.5852 28.125 16.6725L27.9225 16.6125C27.9349 16.5623 27.9296 16.5093 27.9075 16.4625C27.885 16.4175 27.8475 16.3875 27.7875 16.3575C27.7525 16.3375 27.7137 16.3252 27.6736 16.3213C27.6336 16.3175 27.5931 16.3221 27.555 16.335C27.48 16.3575 27.4125 16.425 27.36 16.53C27.3075 16.635 27.285 16.7325 27.3075 16.815C27.3178 16.8541 27.3366 16.8905 27.3625 16.9216C27.3885 16.9527 27.4209 16.9777 27.4575 16.995C27.495 17.0175 27.54 17.0325 27.585 17.0325C27.6297 17.0393 27.6752 17.0393 27.72 17.0325L27.78 16.9125L27.5625 16.8V16.8ZM20.7975 15.1275L20.9475 14.0775L21.2625 14.13L21.345 14.865L21.6375 14.19L21.9525 14.235L21.8025 15.27L21.6 15.24L21.7275 14.4225L21.3975 15.21L21.195 15.18L21.1125 14.3325L20.9925 15.1575L20.7975 15.1275V15.1275ZM19.74 15L19.8375 13.95L20.61 14.025L20.595 14.205L20.0325 14.1525L20.01 14.3775L20.535 14.43L20.5125 14.61L19.9875 14.5575L19.965 14.8425L20.55 14.895L20.535 15.075L19.74 15V15Z" fill="#309E3A"/>
<path d="M16.2374 14.3475C16.2374 14.235 16.2599 14.1525 16.2899 14.0775C16.3162 14.0241 16.3517 13.9759 16.3949 13.935C16.4333 13.8962 16.4793 13.8656 16.5299 13.845C16.6049 13.8225 16.6799 13.8075 16.7549 13.8075C16.9124 13.8075 17.0324 13.8675 17.1299 13.9575C17.1763 14.0148 17.2108 14.0808 17.2314 14.1517C17.252 14.2225 17.2583 14.2967 17.2499 14.37C17.2499 14.535 17.1974 14.67 17.0999 14.7675C17.0498 14.8138 16.9905 14.8491 16.9259 14.871C16.8613 14.893 16.7928 14.9012 16.7249 14.895C16.6578 14.8957 16.5914 14.8827 16.5295 14.8569C16.4676 14.8312 16.4116 14.7931 16.3649 14.745C16.2716 14.6345 16.2257 14.4916 16.2374 14.3475V14.3475Z" fill="#309E3A"/>
<path d="M16.4551 14.3475C16.4551 14.46 16.4776 14.55 16.5301 14.6175C16.5826 14.6775 16.6501 14.715 16.7401 14.715C16.779 14.7177 16.8181 14.7117 16.8544 14.6975C16.8907 14.6832 16.9234 14.661 16.9501 14.6325C17.0026 14.5725 17.0251 14.4825 17.0326 14.355C17.0326 14.235 17.0176 14.145 16.9576 14.085C16.9331 14.0548 16.9023 14.0303 16.8673 14.0135C16.8323 13.9966 16.7939 13.9877 16.7551 13.9875C16.7156 13.9862 16.6764 13.9936 16.6401 14.0092C16.6038 14.0247 16.5714 14.048 16.5451 14.0775C16.4851 14.1375 16.4626 14.2275 16.4551 14.3475V14.3475Z" fill="#F7FFFF"/>
<path d="M17.4749 14.8875L17.4899 13.8375H17.9399C18.0524 13.8375 18.1274 13.8525 18.1799 13.875C18.2324 13.89 18.2699 13.9275 18.2999 13.9725C18.3299 14.0175 18.3449 14.0775 18.3449 14.145C18.3455 14.2172 18.3187 14.2869 18.2699 14.34C18.2145 14.392 18.1431 14.4237 18.0674 14.43L18.1799 14.52C18.2099 14.55 18.2474 14.61 18.2924 14.6925L18.4199 14.9025H18.1649L18.0149 14.6625L17.9099 14.5125C17.8917 14.4919 17.8685 14.4764 17.8424 14.4675C17.8083 14.4576 17.7729 14.4525 17.7374 14.4525H17.6924V14.8875H17.4749V14.8875Z" fill="#309E3A"/>
<path d="M17.7 14.2875H17.85C17.955 14.2875 18.0225 14.2875 18.045 14.2725C18.0675 14.2725 18.09 14.25 18.105 14.235C18.12 14.22 18.1275 14.1825 18.1275 14.16C18.1275 14.115 18.12 14.085 18.0975 14.07C18.0825 14.0475 18.0525 14.0325 18.0225 14.025H17.8725L17.7 14.0175V14.28V14.2875Z" fill="white"/>
<path d="M18.675 13.89L19.065 13.9125C19.1475 13.9125 19.215 13.92 19.26 13.935C19.3184 13.9562 19.3701 13.9924 19.41 14.04C19.4532 14.0924 19.484 14.154 19.5 14.22C19.5225 14.2875 19.53 14.37 19.5225 14.4675C19.5224 14.544 19.5097 14.6201 19.485 14.6925C19.455 14.7675 19.41 14.8275 19.3575 14.8725C19.3138 14.9085 19.2625 14.9341 19.2075 14.9475C19.1625 14.9625 19.095 14.9625 19.02 14.9625L18.6225 14.94L18.675 13.89V13.89Z" fill="#309E3A"/>
<path d="M18.8776 14.0775L18.8401 14.775H19.1251C19.1626 14.775 19.1926 14.76 19.2151 14.7375C19.2376 14.715 19.2601 14.685 19.2751 14.64C19.2901 14.595 19.3051 14.5275 19.3051 14.445L19.2976 14.2575C19.2869 14.218 19.2662 14.1818 19.2376 14.1525C19.2127 14.1274 19.1817 14.1093 19.1476 14.1C19.0909 14.0874 19.0331 14.0798 18.9751 14.0775H18.8776V14.0775Z" fill="white"/>
<path d="M23.8201 15.765L24.0676 14.745L24.3976 14.82L24.6376 14.895C24.6901 14.925 24.7351 14.97 24.7576 15.0375C24.7876 15.0975 24.7876 15.165 24.7726 15.2475C24.7576 15.3075 24.7351 15.36 24.6976 15.3975C24.67 15.4304 24.6356 15.4569 24.5967 15.475C24.5579 15.4932 24.5155 15.5026 24.4726 15.5025C24.4201 15.5025 24.3451 15.4875 24.2476 15.465L24.1201 15.4275L24.0301 15.8175L23.8201 15.765V15.765Z" fill="#309E3A"/>
<path d="M24.2249 14.97L24.1649 15.255L24.2774 15.285C24.3524 15.3 24.4124 15.315 24.4424 15.3075C24.4716 15.3035 24.4988 15.2905 24.5203 15.2703C24.5418 15.2502 24.5565 15.2239 24.5624 15.195C24.5624 15.1575 24.5624 15.1275 24.5474 15.0975C24.531 15.067 24.5045 15.0432 24.4724 15.03L24.3299 14.9925L24.2324 14.97H24.2249Z" fill="white"/>
<path d="M24.7949 16.0575L25.1474 15.0675L25.5599 15.2175C25.6724 15.255 25.7399 15.2925 25.7849 15.3225C25.8224 15.36 25.8524 15.3975 25.8599 15.4575C25.8674 15.5175 25.8749 15.57 25.8599 15.63C25.8299 15.705 25.7849 15.7575 25.7249 15.795C25.6649 15.825 25.5899 15.8325 25.4999 15.8175C25.5299 15.855 25.5599 15.8925 25.5749 15.9375L25.6349 16.14L25.6799 16.3725L25.4474 16.29L25.3724 16.02C25.3588 15.959 25.3413 15.8988 25.3199 15.84C25.31 15.8167 25.2945 15.7961 25.2749 15.78C25.2599 15.7575 25.2299 15.7425 25.1774 15.7275L25.1399 15.7125L24.9899 16.1325L24.7949 16.0575V16.0575Z" fill="#309E3A"/>
<path d="M25.2 15.555L25.3425 15.6075C25.44 15.645 25.5 15.66 25.53 15.66C25.5525 15.66 25.575 15.66 25.5975 15.6375C25.62 15.6225 25.635 15.6 25.6425 15.57C25.6575 15.54 25.6575 15.51 25.6425 15.48C25.6314 15.4509 25.6101 15.4269 25.5825 15.4125L25.4325 15.36L25.2825 15.3075L25.1925 15.555H25.2Z" fill="white"/>
<path d="M26.0249 16.02C26.0507 15.9322 26.0941 15.8505 26.1524 15.78C26.1904 15.7348 26.2361 15.6967 26.2874 15.6675C26.3339 15.6412 26.3847 15.6235 26.4374 15.615C26.5124 15.615 26.5874 15.615 26.6699 15.645C26.737 15.6616 26.7997 15.6922 26.854 15.7349C26.9083 15.7776 26.953 15.8313 26.9849 15.8925C27.0449 16.0125 27.0449 16.155 26.9999 16.32C26.9628 16.4618 26.8712 16.5831 26.7449 16.6575C26.6324 16.725 26.4974 16.7325 26.3549 16.6875C26.2881 16.6705 26.2255 16.6397 26.1713 16.597C26.117 16.5544 26.0723 16.5009 26.0399 16.44C26.0099 16.3744 25.9931 16.3036 25.9905 16.2315C25.988 16.1594 25.9997 16.0876 26.0249 16.02V16.02Z" fill="#309E3A"/>
<path d="M26.2351 16.08C26.2051 16.1925 26.1976 16.29 26.2351 16.365C26.2726 16.44 26.3251 16.485 26.4076 16.515C26.4826 16.5375 26.5576 16.53 26.6326 16.485C26.7076 16.4475 26.7526 16.365 26.7901 16.245C26.8276 16.1325 26.8276 16.0425 26.7901 15.9675C26.7753 15.9319 26.7528 15.9 26.7243 15.8741C26.6958 15.8482 26.6619 15.8289 26.6251 15.8175C26.5882 15.8048 26.549 15.8002 26.5101 15.8041C26.4713 15.8079 26.4338 15.8202 26.4001 15.84C26.3251 15.885 26.2726 15.96 26.2351 16.08V16.08Z" fill="white"/>
<path d="M28.0726 17.4825L28.5526 16.5525L28.9501 16.755C29.025 16.791 29.0934 16.8391 29.1526 16.8975C29.1901 16.935 29.2126 16.98 29.2126 17.04C29.2126 17.1 29.2126 17.1525 29.1826 17.205C29.1537 17.2724 29.1 17.3262 29.0326 17.355C28.9576 17.37 28.8826 17.37 28.8001 17.34C28.8301 17.385 28.8451 17.43 28.8601 17.4675C28.8751 17.5125 28.8826 17.58 28.8901 17.6775L28.9051 17.9175L28.6801 17.805L28.6501 17.5275C28.6465 17.4646 28.639 17.402 28.6276 17.34C28.6225 17.3119 28.6094 17.2859 28.5901 17.265L28.5001 17.2125L28.4626 17.19L28.2601 17.58L28.0726 17.4825V17.4825Z" fill="#309E3A"/>
<path d="M28.5374 17.04L28.6799 17.115C28.7699 17.16 28.8299 17.19 28.8524 17.19C28.8749 17.19 28.9049 17.19 28.9274 17.175C28.9499 17.1675 28.9649 17.145 28.9799 17.115C28.9949 17.085 29.0024 17.055 28.9949 17.025C28.9856 16.9951 28.9673 16.9689 28.9424 16.95C28.8985 16.9231 28.8535 16.898 28.8074 16.875L28.6574 16.8L28.5374 17.04V17.04Z" fill="white"/>
<path d="M31.9576 19.4025C32.0061 19.3254 32.0699 19.259 32.1451 19.2075C32.1955 19.1752 32.2514 19.1523 32.3101 19.14C32.3645 19.1289 32.4206 19.1289 32.4751 19.14C32.5501 19.155 32.6176 19.185 32.6851 19.23C32.7434 19.2664 32.7936 19.3145 32.8323 19.3713C32.8711 19.4281 32.8975 19.4924 32.9101 19.56C32.9326 19.6875 32.8951 19.83 32.8051 19.9725C32.7298 20.0964 32.6084 20.1855 32.4676 20.22C32.4004 20.2345 32.331 20.2347 32.2638 20.2204C32.1965 20.2062 32.1331 20.178 32.0776 20.1375C32.0192 20.1012 31.969 20.053 31.9303 19.9962C31.8916 19.9394 31.8651 19.8751 31.8526 19.8075C31.8301 19.6725 31.8676 19.5375 31.9576 19.4025Z" fill="#309E3A"/>
<path d="M32.145 19.5225C32.07 19.62 32.0475 19.71 32.0625 19.7925C32.0681 19.8305 32.0816 19.8669 32.1023 19.8992C32.123 19.9315 32.1504 19.9591 32.1825 19.98C32.2575 20.0325 32.3325 20.0475 32.4075 20.025C32.4825 20.0025 32.5575 19.95 32.625 19.845C32.6925 19.74 32.7225 19.65 32.7075 19.575C32.7 19.5 32.655 19.4325 32.5875 19.38C32.52 19.3275 32.4375 19.32 32.3625 19.3425C32.2875 19.3575 32.2125 19.4175 32.1375 19.5225H32.145Z" fill="white"/>
<path d="M22.635 15.3375L22.8075 14.6025L23.3475 14.73L23.325 14.85L22.9275 14.76L22.89 14.925L23.2575 15.0075L23.2275 15.135L22.86 15.045L22.815 15.2475L23.2275 15.345L23.1975 15.465L22.635 15.3375V15.3375Z" fill="#309E3A"/>
</svg>
